<?xml version="1.0" encoding="UTF-8" standalone="no"?>
<!-- Created with Inkscape (http://www.inkscape.org/) -->

<svg
   xmlns:dc="http://purl.org/dc/elements/1.1/"
   xmlns:cc="http://creativecommons.org/ns#"
   xmlns:rdf="http://www.w3.org/1999/02/22-rdf-syntax-ns#"
   xmlns:svg="http://www.w3.org/2000/svg"
   xmlns="http://www.w3.org/2000/svg"
   xmlns:sodipodi="http://sodipodi.sourceforge.net/DTD/sodipodi-0.dtd"
   xmlns:inkscape="http://www.inkscape.org/namespaces/inkscape"
   width="50"
   height="50"
   id="svg2"
   version="1.1"
   inkscape:version="0.48.2 r9819"
   sodipodi:docname="menu.svg">
  <defs
     id="defs4" />
  <sodipodi:namedview
     id="base"
     pagecolor="#ffffff"
     bordercolor="#666666"
     borderopacity="1.0"
     inkscape:pageopacity="0.0"
     inkscape:pageshadow="2"
     inkscape:zoom="11.2"
     inkscape:cx="25.705902"
     inkscape:cy="27.096974"
     inkscape:document-units="px"
     inkscape:current-layer="layer1"
     showgrid="false"
     inkscape:window-width="1027"
     inkscape:window-height="529"
     inkscape:window-x="2300"
     inkscape:window-y="376"
     inkscape:window-maximized="0"
     showguides="true"
     inkscape:guide-bbox="true">
    <sodipodi:guide
       orientation="1,0"
       position="9.1071429,27.321429"
       id="guide3791" />
    <sodipodi:guide
       orientation="1,0"
       position="40.892857,28.035714"
       id="guide3793" />
    <sodipodi:guide
       orientation="0,1"
       position="30.535714,43.928572"
       id="guide3795" />
    <sodipodi:guide
       orientation="0,1"
       position="34.464286,32.142857"
       id="guide3797" />
    <sodipodi:guide
       orientation="0,1"
       position="32.57742,18.182746"
       id="guide4091" />
    <sodipodi:guide
       orientation="0,1"
       position="59.346462,11.364216"
       id="guide4093" />
    <sodipodi:guide
       orientation="1,0"
       position="24.732143,28.482143"
       id="guide4095" />
  </sodipodi:namedview>
  <metadata
     id="metadata7">
    <rdf:RDF>
      <cc:Work
         rdf:about="">
        <dc:format>image/svg+xml</dc:format>
        <dc:type
           rdf:resource="http://purl.org/dc/dcmitype/StillImage" />
        <dc:title />
      </cc:Work>
    </rdf:RDF>
  </metadata>
  <g
     inkscape:label="Layer 1"
     inkscape:groupmode="layer"
     id="layer1"
     transform="translate(0,-1002.3622)">
    <path
       sodipodi:type="arc"
       style="fill:#FFFFFF;fill-opacity:1;stroke:none"
       id="path3799"
       sodipodi:cx="25"
       sodipodi:cy="12"
       sodipodi:rx="16"
       sodipodi:ry="6"
       d="m 9,12 a 16,6 0 0 1 32,0 l -16,0 z"
       transform="matrix(1,0,0,2,0,998.3622)"
       sodipodi:start="3.1415927"
       sodipodi:end="6.2831853" />
    <path
       sodipodi:type="arc"
       style="fill:#FFFFFF;fill-opacity:1;stroke:none"
       id="path3801-0-9-1"
       sodipodi:cx="3.2142856"
       sodipodi:cy="15.535714"
       sodipodi:rx="1.6071428"
       sodipodi:ry="2.3214288"
       d="m 4.8214284,15.535714 c 0,1.28209 -0.7195423,2.321429 -1.6071428,2.321429 -0.8876005,0 -1.6071428,-1.039339 -1.6071428,-2.321429 0,-1.28209 0.7195423,-2.321429 1.6071428,-2.321429 0.8876005,0 1.6071428,1.039339 1.6071428,2.321429 z"
       transform="matrix(0.62222224,0,0,0.43076919,21,1005.6699)" />
    <path
       sodipodi:type="arc"
       style="fill:#000000;fill-opacity:1;stroke:none"
       id="path3801-0-9-1-7"
       sodipodi:cx="3.2142856"
       sodipodi:cy="15.535714"
       sodipodi:rx="1.6071428"
       sodipodi:ry="2.3214288"
       d="m 4.8214284,15.535714 c 0,1.28209 -0.7195423,2.321429 -1.6071428,2.321429 -0.8876005,0 -1.6071428,-1.039339 -1.6071428,-2.321429 0,-1.28209 0.7195423,-2.321429 1.6071428,-2.321429 0.8876005,0 1.6071428,1.039339 1.6071428,2.321429 z"
       transform="matrix(0.31111112,0,0,0.2153846,16.5,1014.516)" />
    <path
       sodipodi:type="arc"
       style="fill:#000000;fill-opacity:1;stroke:none"
       id="path3801-0-9-1-7-1"
       sodipodi:cx="3.2142856"
       sodipodi:cy="15.535714"
       sodipodi:rx="1.6071428"
       sodipodi:ry="2.3214288"
       d="m 4.8214284,15.535714 c 0,1.28209 -0.7195423,2.321429 -1.6071428,2.321429 -0.8876005,0 -1.6071428,-1.039339 -1.6071428,-2.321429 0,-1.28209 0.7195423,-2.321429 1.6071428,-2.321429 0.8876005,0 1.6071428,1.039339 1.6071428,2.321429 z"
       transform="matrix(0.93333336,0,0,0.64615379,15.5,1004.8237)" />
    <path
       sodipodi:type="arc"
       style="fill:#000000;fill-opacity:1;stroke:none"
       id="path3801-0-9-1-7-1-1"
       sodipodi:cx="3.2142856"
       sodipodi:cy="15.535714"
       sodipodi:rx="1.6071428"
       sodipodi:ry="2.3214288"
       d="m 4.8214284,15.535714 c 0,1.28209 -0.7195423,2.321429 -1.6071428,2.321429 -0.8876005,0 -1.6071428,-1.039339 -1.6071428,-2.321429 0,-1.28209 0.7195423,-2.321429 1.6071428,-2.321429 0.8876005,0 1.6071428,1.039339 1.6071428,2.321429 z"
       transform="matrix(0.62222224,0,0,0.43076919,20,1010.6699)" />
    <path
       sodipodi:type="arc"
       style="fill:#000000;fill-opacity:1;stroke:none"
       id="path3801-0-9-1-7-1-5"
       sodipodi:cx="3.2142856"
       sodipodi:cy="15.535714"
       sodipodi:rx="1.6071428"
       sodipodi:ry="2.3214288"
       d="m 4.8214284,15.535714 c 0,1.28209 -0.7195423,2.321429 -1.6071428,2.321429 -0.8876005,0 -1.6071428,-1.039339 -1.6071428,-2.321429 0,-1.28209 0.7195423,-2.321429 1.6071428,-2.321429 0.8876005,0 1.6071428,1.039339 1.6071428,2.321429 z"
       transform="matrix(0.93333336,0,0,0.64615379,11.5,1006.8237)" />
    <path
       style="fill:#FFFFFF;fill-opacity:1;stroke:none"
       d="m 9.1190475,1034.3622 c 0,0 -0.8074482,7 1.7833905,7 2.298992,0 6.024445,0 13.832279,0 8.075532,0 11.845601,0 14.310646,0 2.641627,0 1.840418,-7 1.840418,-7 z"
       id="path4097"
       inkscape:connector-curvature="0"
       sodipodi:nodetypes="cssscc" />
  </g>
</svg>
